<?xml version="1.0" standalone="no"?>
<!DOCTYPE svg PUBLIC "-//W3C//DTD SVG 20010904//EN"
 "http://www.w3.org/TR/2001/REC-SVG-20010904/DTD/svg10.dtd">
<svg version="1.0" xmlns="http://www.w3.org/2000/svg"
 width="1000.000000pt" height="1000.000000pt" viewBox="0 0 1000.000000 1000.000000"
 preserveAspectRatio="xMidYMid meet">

<g transform="translate(0.000000,1000.000000) scale(0.100000,-0.100000)"
fill="#000000" stroke="none">
<path d="M4320 6925 l0 -125 270 0 269 0 3 -142 3 -143 138 -3 137 -3 0 -274
0 -275 -140 0 -140 0 0 -135 0 -134 138 -3 137 -3 3 -137 3 -138 -136 0 -135
0 0 -140 0 -140 -280 0 -280 0 0 -135 0 -135 -415 0 -415 0 0 135 0 135 -140
0 -140 0 0 270 0 270 -130 0 -130 0 0 -675 0 -674 133 -3 132 -3 3 -137 3
-138 409 0 410 0 0 135 0 135 413 2 412 3 3 138 3 137 274 0 275 0 0 135 0
135 275 0 275 0 0 135 0 135 278 2 277 3 3 138 3 137 274 0 275 0 0 135 0 135
-140 0 -140 0 0 145 0 145 275 0 275 0 0 135 0 135 -410 0 -409 0 -3 133 -3
132 -137 3 -138 3 0 134 0 135 -280 0 -280 0 0 135 0 135 -680 0 -680 0 0
-125z"/>
<path d="M7900 6655 l0 -135 410 0 410 0 0 135 0 135 -410 0 -410 0 0 -135z"/>
<path d="M3770 6650 l0 -130 135 0 135 0 0 -275 0 -275 130 0 130 0 0 405 0
405 -265 0 -265 0 0 -130z"/>
<path d="M7350 6375 l0 -135 270 0 270 0 0 135 0 135 -270 0 -270 0 0 -135z"/>
<path d="M8720 6375 l0 -135 -135 0 -135 0 0 -135 0 -135 135 0 135 0 0 135 0
135 140 0 141 0 -3 133 -3 132 -137 3 -138 3 0 -136z"/>
<path d="M3490 6370 l0 -130 130 0 130 0 0 130 0 130 -130 0 -130 0 0 -130z"/>
<path d="M3210 6100 l0 -130 135 0 135 0 0 130 0 130 -135 0 -135 0 0 -130z"/>
<path d="M8170 5825 l0 -135 135 0 135 0 0 135 0 135 -135 0 -135 0 0 -135z"/>
<path d="M7620 5545 l0 -135 275 0 275 0 0 135 0 135 -275 0 -275 0 0 -135z"/>
<path d="M3490 5275 l0 -135 270 0 270 0 0 135 0 135 -270 0 -270 0 0 -135z"/>
<path d="M7348 5275 l3 -135 130 0 129 0 0 135 0 135 -132 0 -133 0 3 -135z"/>
<path d="M6790 4995 l0 -135 -275 0 -275 0 0 -140 0 -140 -275 0 -275 0 0
-135 0 -135 -275 0 -275 0 0 -140 0 -140 -415 0 -415 0 0 -140 0 -140 -410 0
-410 0 0 -130 0 -130 135 0 135 0 0 -139 0 -139 563 -6 c309 -4 742 -6 962 -4
l400 3 3 138 3 137 274 0 275 0 0 135 0 134 138 3 137 3 3 138 3 137 134 0
135 0 0 140 0 140 135 0 135 0 0 275 0 275 140 0 140 0 0 135 0 135 -275 0
-275 0 0 -135z"/>
<path d="M2387 4303 c-4 -3 -7 -64 -7 -135 l0 -128 275 0 276 0 -3 133 -3 132
-266 3 c-146 1 -268 -1 -272 -5z"/>
<path d="M1830 3895 l0 -135 273 2 272 3 3 133 3 132 -276 0 -275 0 0 -135z"/>
<path d="M1280 3615 l0 -135 270 0 270 0 0 135 0 135 -270 0 -270 0 0 -135z"/>
<path d="M2380 3345 l0 -135 550 0 550 0 0 135 0 135 -550 0 -550 0 0 -135z"/>
<path d="M1000 3070 l0 -130 690 0 690 0 0 130 0 130 -690 0 -690 0 0 -130z"/>
</g>
</svg>
